@startuml
class LoginModel {
    + LoginModel(signInManager:SignInManager<IdentityUser>, logger:ILogger<LoginModel>)
    + ReturnUrl : string <<get>> <<set>>
    + ErrorMessage : string <<get>> <<set>>
    + <<async>> OnGetAsync(returnUrl:string) : Task
    + <<async>> OnPostAsync(returnUrl:string) : Task<IActionResult>
}
class "SignInManager`1"<T> {
}
class "ILogger`1"<T> {
}
class "IList`1"<T> {
}
class InputModel {
    + UserName : string <<get>> <<set>>
    + Password : string <<get>> <<set>>
    + RememberMe : bool <<get>> <<set>>
}
PageModel <|-- LoginModel
LoginModel --> "_signInManager<IdentityUser>" "SignInManager`1"
LoginModel --> "_logger<LoginModel>" "ILogger`1"
LoginModel --> "Input" InputModel
LoginModel --> "ExternalLogins<AuthenticationScheme>" "IList`1"
LoginModel +-- InputModel
@enduml
